<?xml version="1.0" encoding="UTF-8"?>
<svg width="19px" height="15px" viewBox="0 0 19 15" version="1.1" xmlns="http://www.w3.org/2000/svg" xmlns:xlink="http://www.w3.org/1999/xlink">
    <!-- Generator: Sketch 52.6 (67491) - http://www.bohemiancoding.com/sketch -->
    <title>chrome_reader_mode-24px</title>
    <desc>Created with Sketch.</desc>
    <g id="Page-1" stroke="none" stroke-width="1" fill="none" fill-rule="evenodd">
        <g id="chrome_reader_mode-24px">
            <rect id="Rectangle" fill="#EA6D6D" x="0" y="0" width="19" height="15" rx="4"></rect>
            <path d="M10,6 L15,6 C15.5522847,6 16,6.44771525 16,7 L16,7 C16,7.55228475 15.5522847,8 15,8 L10,8 C9.44771525,8 9,7.55228475 9,7 L9,7 C9,6.44771525 9.44771525,6 10,6 Z M10,3 L15,3 C15.5522847,3 16,3.44771525 16,4 C16,4.55228475 15.5522847,5 15,5 L10,5 C9.44771525,5 9,4.55228475 9,4 C9,3.44771525 9.44771525,3 10,3 Z M2,1 C2.55228475,1 3,1.44771525 3,2 L3,13 C3,13.5522847 2.55228475,14 2,14 C1.44771525,14 1,13.5522847 1,13 L1,2 C1,1.44771525 1.44771525,1 2,1 Z M5,1 L5,1 C5.55228475,1 6,1.44771525 6,2 L6,13 C6,13.5522847 5.55228475,14 5,14 L5,14 C4.44771525,14 4,13.5522847 4,13 L4,2 C4,1.44771525 4.44771525,1 5,1 Z M10,9 L15,9 C15.5522847,9 16,9.44771525 16,10 L16,10 C16,10.5522847 15.5522847,11 15,11 L10,11 C9.44771525,11 9,10.5522847 9,10 L9,10 C9,9.44771525 9.44771525,9 10,9 Z M17.2727273,0 L1.72727273,0 C0.777272727,0 0,0.794117647 0,1.76470588 L0,13.2352941 C0,14.2058824 0.777272727,15 1.72727273,15 L17.2727273,15 C18.2227273,15 19,14.2058824 19,13.2352941 L19,1.76470588 C19,0.794117647 18.2227273,0 17.2727273,0 Z M17,14 L8,14 C7.44771525,14 7,13.5522847 7,13 L7,2 C7,1.44771525 7.44771525,1 8,1 L17,1 C17.5522847,1 18,1.44771525 18,2 L18,13 C18,13.5522847 17.5522847,14 17,14 Z" id="Shape" fill="#FFFFFF" fill-rule="nonzero"></path>
        </g>
    </g>
</svg>