<svg xmlns="http://www.w3.org/2000/svg"  viewBox="0 0 64 64" width="64px" height="64px"><linearGradient id="vTLAqKEDRyxx_1HpNs9Caa" x1="34.247" x2="34.247" y1="21.063" y2="42.703" gradientUnits="userSpaceOnUse" spreadMethod="reflect"><stop offset="0" stop-color="#6dc7ff"/><stop offset="1" stop-color="#e6abff"/></linearGradient><path fill="url(#vTLAqKEDRyxx_1HpNs9Caa)" d="M39.4,30.14l-1.6,3.75l-8.42-10.07c-0.43-0.51-0.37-1.29,0.14-1.73l0.91-0.8 c0.51-0.44,1.26-0.38,1.7,0.14l6.82,8.16h0.01L39.4,30.14z"/><linearGradient id="vTLAqKEDRyxx_1HpNs9Cab" x1="24.93" x2="24.93" y1="21.083" y2="48.334" gradientUnits="userSpaceOnUse" spreadMethod="reflect"><stop offset="0" stop-color="#6dc7ff"/><stop offset="1" stop-color="#e6abff"/></linearGradient><path fill="url(#vTLAqKEDRyxx_1HpNs9Cab)" d="M28.94 30.389L24.238 42.121 20.92 40.735 25.609 28.99z"/><linearGradient id="vTLAqKEDRyxx_1HpNs9Cac" x1="19.729" x2="19.729" y1="21.083" y2="48.334" gradientUnits="userSpaceOnUse" spreadMethod="reflect"><stop offset="0" stop-color="#6dc7ff"/><stop offset="1" stop-color="#e6abff"/></linearGradient><path fill="url(#vTLAqKEDRyxx_1HpNs9Cac)" d="M22.459 33.616L20.872 37.593 17.553 38.133 17 34.5z"/><linearGradient id="vTLAqKEDRyxx_1HpNs9Cad" x1="32.457" x2="32.457" y1="21.083" y2="48.334" gradientUnits="userSpaceOnUse" spreadMethod="reflect"><stop offset="0" stop-color="#6dc7ff"/><stop offset="1" stop-color="#e6abff"/></linearGradient><path fill="url(#vTLAqKEDRyxx_1HpNs9Cad)" d="M34.375 31.702L37.116 34.979 27.798 36.476 29.397 32.5z"/><linearGradient id="vTLAqKEDRyxx_1HpNs9Cae" x1="46.14" x2="46.14" y1="21.483" y2="47.477" gradientUnits="userSpaceOnUse" spreadMethod="reflect"><stop offset="0" stop-color="#6dc7ff"/><stop offset="1" stop-color="#e6abff"/></linearGradient><path fill="url(#vTLAqKEDRyxx_1HpNs9Cae)" d="M47 33.38L45.28 33.66 46.36 29.76 46.43 29.75z"/><linearGradient id="vTLAqKEDRyxx_1HpNs9Caf" x1="21.846" x2="21.846" y1="21.083" y2="48.334" gradientUnits="userSpaceOnUse" spreadMethod="reflect"><stop offset="0" stop-color="#6dc7ff"/><stop offset="1" stop-color="#e6abff"/></linearGradient><path fill="url(#vTLAqKEDRyxx_1HpNs9Caf)" d="M20.667,41.95l3.102,1.301c-0.036,0.074-0.072,0.147-0.132,0.209L19.922,48l0.517-5.903 l0.036-0.221L20.667,41.95z"/><linearGradient id="vTLAqKEDRyxx_1HpNs9Cag" x1="28.104" x2="28.104" y1="21.083" y2="48.334" gradientUnits="userSpaceOnUse" spreadMethod="reflect"><stop offset="0" stop-color="#6dc7ff"/><stop offset="1" stop-color="#e6abff"/></linearGradient><path fill="url(#vTLAqKEDRyxx_1HpNs9Cag)" d="M30.058,27.603l-0.661,1.657l-3.331-1.399l0.649-1.644c0.252-0.626,0.95-0.933,1.563-0.675 l1.118,0.466C30.01,26.265,30.299,26.977,30.058,27.603z"/><linearGradient id="vTLAqKEDRyxx_1HpNs9Cah" x1="45.18" x2="45.18" y1="21.671" y2="48.191" gradientUnits="userSpaceOnUse" spreadMethod="reflect"><stop offset="0" stop-color="#6dc7ff"/><stop offset="1" stop-color="#e6abff"/></linearGradient><path fill="url(#vTLAqKEDRyxx_1HpNs9Cah)" d="M47,39.97c0,2.12-0.59,3.03-0.59,3.03s-0.44-1.5-2.74-2.29c-0.11-0.04-0.21-0.08-0.31-0.12 l1.28-4.62C45.44,36.38,47,37.49,47,39.97z"/><linearGradient id="vTLAqKEDRyxx_1HpNs9Cai" x1="27.575" x2="27.575" y1="21.083" y2="48.334" gradientUnits="userSpaceOnUse" spreadMethod="reflect"><stop offset="0" stop-color="#6dc7ff"/><stop offset="1" stop-color="#e6abff"/></linearGradient><path fill="url(#vTLAqKEDRyxx_1HpNs9Cai)" d="M27.99 32.721L28.002 32.721 27.148 34.856z"/><linearGradient id="vTLAqKEDRyxx_1HpNs9Caj" x1="28.14" x2="28.14" y1="21.083" y2="48.334" gradientUnits="userSpaceOnUse" spreadMethod="reflect"><stop offset="0" stop-color="#6dc7ff"/><stop offset="1" stop-color="#e6abff"/></linearGradient><path fill="url(#vTLAqKEDRyxx_1HpNs9Caj)" d="M28.279 32.046L28.002 32.721 28.267 32.046z"/><linearGradient id="vTLAqKEDRyxx_1HpNs9Cak" x1="39.17" x2="39.17" y1="25.699" y2="38.162" gradientUnits="userSpaceOnUse" spreadMethod="reflect"><stop offset="0" stop-color="#6dc7ff"/><stop offset="1" stop-color="#e6abff"/></linearGradient><path fill="url(#vTLAqKEDRyxx_1HpNs9Cak)" d="M39.4 30.14L38.94 29.59 38.96 29.59z"/><linearGradient id="vTLAqKEDRyxx_1HpNs9Cal" x1="31.3" x2="31.3" y1="11.091" y2="56.726" gradientUnits="userSpaceOnUse" spreadMethod="reflect"><stop offset="0" stop-color="#1a6dff"/><stop offset="1" stop-color="#c822ff"/></linearGradient><path fill="none" stroke="url(#vTLAqKEDRyxx_1HpNs9Cal)" stroke-miterlimit="10" stroke-width="2" d="M56.593 48.43L11.543 55.581 6 19.116 50.829 12.231z"/><linearGradient id="vTLAqKEDRyxx_1HpNs9Cam" x1="45" x2="45" y1="6" y2="57.001" gradientUnits="userSpaceOnUse" spreadMethod="reflect"><stop offset="0" stop-color="#6dc7ff"/><stop offset="1" stop-color="#e6abff"/></linearGradient><path fill="url(#vTLAqKEDRyxx_1HpNs9Cam)" d="M59,10.82l-1.96,6.11l-2.43-0.78c0.1-0.46,0.05-0.92-0.54-1.36c-0.29-0.22-0.7-0.3-1.12-0.3 s-0.85,0.08-1.19,0.18l-0.01,0.01c-0.13,0.03-0.25,0.09-0.38,0.14c-0.12,0.06-0.24,0.12-0.35,0.19C51.01,15.02,51,15.02,51,15.02 c-0.4,0.24-0.76,0.56-1.05,0.91c-0.01,0-0.02,0.01-0.02,0.02c-0.3,0.35-0.54,0.72-0.69,1.07c-0.03,0.07-0.06,0.13-0.09,0.2 c-0.64,1.81-1.26,3.56-1.33,3.72l-2.52,7.99l-7.28,26.22c-0.29,1.23-2.06,2.23-3.74,1.71l-1.15-0.36c-1.68-0.53-2.56-2.38-1.92-4.02 l10.55-24.67l2.09-6.57c0.52-1.79,0.85-3.8,0.76-5.67c-0.04-1.01-0.21-1.98-0.53-2.85c-0.01-0.01-0.02-0.03-0.02-0.05 c-0.11-0.28-0.23-0.55-0.38-0.81h0.01c-0.36-0.63-0.81-1.19-1.4-1.64c-1.76-1.32-3.73-1.79-8.85-1.79V7.82c0,0,2.46-1.82,9.76-1.82 c3.57,0,7.58,1.52,9.71,2.88c0,0,1.05,1.96,2.42,1.96c0.75,0,1.05-0.35,1.24-0.79L59,10.82z"/><linearGradient id="vTLAqKEDRyxx_1HpNs9Can" x1="39.6" x2="39.6" y1="30.35" y2="30.39" gradientUnits="userSpaceOnUse" spreadMethod="reflect"><stop offset="0" stop-color="#6dc7ff"/><stop offset="1" stop-color="#e6abff"/></linearGradient><path fill="url(#vTLAqKEDRyxx_1HpNs9Can)" d="M39.59,30.35h-0.01l0.04,0.04L39.59,30.35z"/></svg>