<svg id="Capa_1" enable-background="new 0 0 512 512" height="512" viewBox="0 0 512 512" width="512" xmlns="http://www.w3.org/2000/svg"><path d="m512 226c0-33.084-26.916-60-60-60s-60 26.916-60 60 26.916 60 60 60 60-26.916 60-60zm-60 30c-16.542 0-30-13.458-30-30s13.458-30 30-30 30 13.458 30 30-13.458 30-30 30z"/><path d="m452 286c-33.084 0-60 26.916-60 60v30h-31v-45c0-41.355-33.645-75-75-75h-60c-41.355 0-75 33.645-75 75v45h-31v-30c0-33.084-26.916-60-60-60s-60 26.916-60 60v120h512v-120c0-33.084-26.916-60-60-60zm-271 45c0-24.813 20.187-45 45-45h15v60h30v-60h15c24.813 0 45 20.187 45 45v45h-150zm122.58 75c-1.665 4.695-2.58 9.742-2.58 15s.915 10.305 2.58 15h-95.16c1.665-4.695 2.58-9.742 2.58-15s-.915-10.305-2.58-15zm-273.58 30v-90c0-16.542 13.458-30 30-30s30 13.458 30 30v60h76c8.271 0 15 6.729 15 15s-6.729 15-15 15zm452 0h-136c-8.271 0-15-6.729-15-15s6.729-15 15-15h76v-60c0-16.542 13.458-30 30-30s30 13.458 30 30z"/><path d="m120 226c0-33.084-26.916-60-60-60s-60 26.916-60 60 26.916 60 60 60 60-26.916 60-60zm-60 30c-16.542 0-30-13.458-30-30s13.458-30 30-30 30 13.458 30 30-13.458 30-30 30z"/><path d="m316 196c0-33.084-26.916-60-60-60s-60 26.916-60 60 26.916 60 60 60 60-26.916 60-60zm-60 30c-16.542 0-30-13.458-30-30s13.458-30 30-30 30 13.458 30 30-13.458 30-30 30z"/><path d="m241 46h30v60h-30z"/><path d="m156.147 81.147h30v60h-30z" transform="matrix(.707 -.707 .707 .707 -28.465 153.573)"/><path d="m310.853 96.147h60v30h-60z" transform="matrix(.707 -.707 .707 .707 21.239 273.57)"/></svg>